<svg width="195" height="195" viewBox="0 0 195 195" fill="none" xmlns="http://www.w3.org/2000/svg">
<g clip-path="url(#clip0_1376_122)">
<path d="M34.518 1.57113e-05H160.407C164.941 -0.00436735 169.432 0.908368 173.622 2.68599C177.811 4.4636 181.618 7.0712 184.824 10.3596C188.031 13.6479 190.573 17.5524 192.306 21.8497C194.039 26.147 194.929 30.7526 194.925 35.4031V159.522C194.929 164.172 194.039 168.778 192.306 173.075C190.573 177.373 188.031 181.277 184.824 184.565C181.618 187.854 177.811 190.461 173.622 192.239C169.432 194.017 164.941 194.929 160.407 194.925H34.518C29.9838 194.929 25.4933 194.017 21.3035 192.239C17.1136 190.461 13.3067 187.854 10.1006 184.565C6.89442 181.277 4.35201 177.373 2.61884 173.075C0.885659 168.778 -0.00425817 164.172 1.53185e-05 159.522V35.4031C-0.00425817 30.7526 0.885659 26.147 2.61884 21.8497C4.35201 17.5524 6.89442 13.6479 10.1006 10.3596C13.3067 7.0712 17.1136 4.4636 21.3035 2.68599C25.4933 0.908368 29.9838 -0.00436735 34.518 1.57113e-05V1.57113e-05Z" fill="#F7DF1E"/>
<path d="M131.271 152.521C135.198 158.932 140.306 163.644 149.341 163.644C156.93 163.644 161.779 159.851 161.779 154.61C161.779 148.329 156.797 146.104 148.443 142.45L143.864 140.485C130.646 134.854 121.865 127.8 121.865 112.886C121.865 99.1488 132.333 88.6909 148.691 88.6909C160.337 88.6909 168.709 92.7441 174.743 103.357L160.479 112.515C157.339 106.884 153.951 104.665 148.691 104.665C143.326 104.665 139.925 108.069 139.925 112.515C139.925 118.01 143.329 120.235 151.188 123.638L155.767 125.6C171.33 132.274 180.117 139.077 180.117 154.374C180.117 170.866 167.162 179.9 149.764 179.9C132.753 179.9 121.763 171.794 116.386 161.169L131.271 152.521ZM66.5655 154.108C69.443 159.214 72.0605 163.53 78.3538 163.53C84.3717 163.53 88.1681 161.175 88.1681 152.02V89.7367H106.485V152.267C106.485 171.234 95.3649 179.866 79.1335 179.866C64.4677 179.866 55.9746 172.277 51.6553 163.135L66.5655 154.108Z" fill="black"/>
</g>
<defs>
<clipPath id="clip0_1376_122">
<rect width="194.925" height="194.925" fill="white"/>
</clipPath>
</defs>
</svg>
