<svg width="24" height="25" viewBox="0 0 24 25" fill="none" xmlns="http://www.w3.org/2000/svg">
<g clip-path="url(#clip0_1382_51)">
<path d="M18 8.5H19C20.0609 8.5 21.0783 8.92143 21.8284 9.67157C22.5786 10.4217 23 11.4391 23 12.5C23 13.5609 22.5786 14.5783 21.8284 15.3284C21.0783 16.0786 20.0609 16.5 19 16.5H18" stroke="#1F2937" stroke-width="1.25" stroke-linecap="round" stroke-linejoin="round"/>
<path d="M2 8.5H18V17.5C18 18.5609 17.5786 19.5783 16.8284 20.3284C16.0783 21.0786 15.0609 21.5 14 21.5H6C4.93913 21.5 3.92172 21.0786 3.17157 20.3284C2.42143 19.5783 2 18.5609 2 17.5V8.5Z" stroke="#1F2937" stroke-width="1.25" stroke-linecap="round" stroke-linejoin="round"/>
<path d="M6 1.5V4.5" stroke="#1F2937" stroke-width="1.25" stroke-linecap="round" stroke-linejoin="round"/>
<path d="M10 1.5V4.5" stroke="#1F2937" stroke-width="1.25" stroke-linecap="round" stroke-linejoin="round"/>
<path d="M14 1.5V4.5" stroke="#1F2937" stroke-width="1.25" stroke-linecap="round" stroke-linejoin="round"/>
</g>
<defs>
<clipPath id="clip0_1382_51">
<rect width="24" height="24" fill="white" transform="translate(0 0.5)"/>
</clipPath>
</defs>
</svg>
