<svg width="196" height="195" viewBox="0 0 196 195" fill="none" xmlns="http://www.w3.org/2000/svg">
<g clip-path="url(#clip0_1376_81)">
<path d="M34.7831 1.57113e-05H160.672C165.206 -0.00436735 169.697 0.908368 173.887 2.68599C178.077 4.4636 181.883 7.0712 185.09 10.3596C188.296 13.6479 190.838 17.5524 192.571 21.8497C194.305 26.147 195.194 30.7526 195.19 35.4031V159.522C195.194 164.172 194.305 168.778 192.571 173.075C190.838 177.373 188.296 181.277 185.09 184.565C181.883 187.854 178.077 190.461 173.887 192.239C169.697 194.017 165.206 194.929 160.672 194.925H34.7831C30.249 194.929 25.7585 194.017 21.5686 192.239C17.3788 190.461 13.5718 187.854 10.3657 184.565C7.15956 181.277 4.61715 177.373 2.88397 173.075C1.1508 168.778 0.260879 164.172 0.265152 159.522V35.4031C0.260879 30.7526 1.1508 26.147 2.88397 21.8497C4.61715 17.5524 7.15956 13.6479 10.3657 10.3596C13.5718 7.0712 17.3788 4.4636 21.5686 2.68599C25.7585 0.908368 30.249 -0.00436735 34.7831 1.57113e-05Z" fill="#000B1D"/>
<path d="M166.115 137.116C167.216 135.209 167.901 133.06 167.901 131.13V64.1354C167.901 62.2054 167.217 60.0567 166.116 58.1492L97.7278 97.6327L166.115 137.116Z" fill="#00599C"/>
<path d="M103.805 175.152L161.824 141.655C163.495 140.69 165.014 139.024 166.115 137.116L97.7278 97.6327L29.3403 137.117C30.4415 139.024 31.961 140.691 33.6319 141.655L91.6507 175.152C94.9929 177.082 100.463 177.082 103.805 175.152Z" fill="#004482"/>
<path d="M166.116 58.1487C165.014 56.2407 163.494 54.5745 161.824 53.6095L103.805 20.1127C100.463 18.1827 94.9928 18.1827 91.6506 20.1127L33.6318 53.6095C30.2891 55.539 27.5547 60.2759 27.5547 64.1354V131.13C27.5547 133.06 28.2385 135.209 29.3402 137.116L97.7277 97.6327L166.116 58.1487Z" fill="#659AD2"/>
<path d="M97.7278 144.415C71.9321 144.415 50.9458 123.428 50.9458 97.6326C50.9458 71.8369 71.9321 50.8506 97.7278 50.8506C114.373 50.8506 129.897 59.808 138.241 74.2269L117.995 85.9426C113.819 78.7253 106.052 74.2416 97.7278 74.2416C84.8297 74.2416 74.3368 84.7345 74.3368 97.6326C74.3368 110.53 84.8297 121.024 97.7278 121.024C106.053 121.024 113.819 116.54 117.996 109.321L138.242 121.036C129.898 135.457 114.374 144.415 97.7278 144.415Z" fill="white"/>
<path d="M144.51 95.0335H139.311V89.8357H134.114V95.0335H128.916V100.231H134.114V105.43H139.311V100.231H144.51V95.0335Z" fill="white"/>
<path d="M164.002 95.0335H158.804V89.8357H153.607V95.0335H148.408V100.231H153.607V105.43H158.804V100.231H164.002V95.0335Z" fill="white"/>
</g>
<defs>
<clipPath id="clip0_1376_81">
<rect width="194.925" height="194.925" fill="white" transform="translate(0.265137)"/>
</clipPath>
</defs>
</svg>
