<svg width="196" height="196" viewBox="0 0 196 196" fill="none" xmlns="http://www.w3.org/2000/svg">
<g clip-path="url(#clip0_1376_133)">
<path d="M35.308 0.898575H161.197C165.731 0.894192 170.222 1.80693 174.412 3.58454C178.601 5.36216 182.408 7.96976 185.614 11.2581C188.821 14.5465 191.363 18.451 193.096 22.7483C194.829 27.0456 195.719 31.6512 195.715 36.3016V160.421C195.719 165.071 194.829 169.677 193.096 173.974C191.363 178.271 188.821 182.176 185.614 185.464C182.408 188.752 178.601 191.36 174.412 193.138C170.222 194.915 165.731 195.828 161.197 195.824H35.308C30.7739 195.828 26.2834 194.915 22.0935 193.138C17.9037 191.36 14.0967 188.752 10.8906 185.464C7.68446 182.176 5.14205 178.271 3.40887 173.974C1.6757 169.677 0.785781 165.071 0.790054 160.421V36.3016C0.785781 31.6512 1.6757 27.0456 3.40887 22.7483C5.14205 18.451 7.68446 14.5465 10.8906 11.2581C14.0967 7.96976 17.9037 5.36216 22.0935 3.58454C26.2834 1.80693 30.7739 0.894192 35.308 0.898575V0.898575Z" fill="#F0F0F0"/>
<path d="M98.2651 173.886L54.4195 161.714L44.6484 52.1227H152.013L142.232 161.697L98.2651 173.886V173.886Z" fill="#264DE4"/>
<path d="M133.858 154.719L142.216 61.0831H98.3306V164.569L133.858 154.719V154.719Z" fill="#2965F1"/>
<path d="M67.0482 101.729L68.2527 115.17H98.3309V101.729H67.0482ZM64.6274 74.5244L65.8492 87.9653H98.3309V74.5244H64.6274V74.5244ZM98.3309 136.637L98.272 136.652L83.303 132.61L82.3459 121.891H68.8533L70.7362 142.995L98.269 150.638L98.3309 150.621V136.637Z" fill="#EBEBEB"/>
<path d="M69.916 22.3403H86.1947V29.1481H76.7238V35.9559H86.1956V42.7632H69.916V22.3403ZM89.4509 22.3403H105.73V28.2601H96.2587V29.444H105.73V43.0595H89.4513V36.843H98.9227V35.6592H89.4505V22.3403H89.4509ZM108.986 22.3403H125.265V28.2601H115.794V29.444H125.265V43.0595H108.986V36.843H118.458V35.6592H108.987V22.3403H108.986Z" fill="black"/>
<path d="M129.528 101.729L131.954 74.5244H98.2846V87.9653H117.224L116.001 101.729H98.2846V115.17H114.836L113.275 132.602L98.2842 136.648V150.631L125.839 142.995L126.041 140.724L129.2 105.338L129.528 101.729V101.729Z" fill="white"/>
</g>
<defs>
<clipPath id="clip0_1376_133">
<rect width="194.925" height="194.925" fill="white" transform="translate(0.790039 0.89856)"/>
</clipPath>
</defs>
</svg>
