<svg width="196" height="195" viewBox="0 0 196 195" fill="none" xmlns="http://www.w3.org/2000/svg">
<g clip-path="url(#clip0_1376_141)">
<path d="M34.6781 1.57113e-05H160.567C165.101 -0.00436735 169.592 0.908368 173.782 2.68599C177.972 4.4636 181.778 7.0712 184.985 10.3596C188.191 13.6479 190.733 17.5524 192.466 21.8497C194.2 26.147 195.089 30.7526 195.085 35.4031V159.522C195.089 164.172 194.2 168.778 192.466 173.075C190.733 177.373 188.191 181.277 184.985 184.565C181.778 187.854 177.972 190.461 173.782 192.239C169.592 194.017 165.101 194.929 160.567 194.925H34.6781C30.144 194.929 25.6535 194.017 21.4636 192.239C17.2738 190.461 13.4669 187.854 10.2607 184.565C7.05458 181.277 4.51217 177.373 2.77899 173.075C1.04582 168.778 0.155898 164.172 0.160172 159.522V35.4031C0.155898 30.7526 1.04582 26.147 2.77899 21.8497C4.51217 17.5524 7.05458 13.6479 10.2607 10.3596C13.4669 7.0712 17.2738 4.4636 21.4636 2.68599C25.6535 0.908368 30.144 -0.00436735 34.6781 1.57113e-05Z" fill="#000B1D"/>
<path d="M78.9426 156.915C90.1566 156.915 99.2473 147.824 99.2473 136.61V116.305H78.9426C67.7287 116.305 58.6379 125.396 58.6379 136.61C58.6379 147.824 67.7287 156.915 78.9426 156.915Z" fill="#0ACF83"/>
<path d="M58.6379 96.0005C58.6379 84.7865 67.7287 75.6958 78.9426 75.6958H99.2473V116.305H78.9426C67.7287 116.305 58.6379 107.214 58.6379 96.0005Z" fill="#A259FF"/>
<path d="M58.6379 55.3911C58.6379 44.1771 67.7287 35.0864 78.9426 35.0864H99.2473V75.6958H78.9426C67.7287 75.6958 58.6379 66.6051 58.6379 55.3911Z" fill="#F24E1E"/>
<path d="M99.2473 35.0864H119.552C130.766 35.0864 139.857 44.1771 139.857 55.3911C139.857 66.6051 130.766 75.6958 119.552 75.6958H99.2473V35.0864Z" fill="#FF7262"/>
<path d="M139.857 96.0005C139.857 107.214 130.766 116.305 119.552 116.305C108.338 116.305 99.2473 107.214 99.2473 96.0005C99.2473 84.7865 108.338 75.6958 119.552 75.6958C130.766 75.6958 139.857 84.7865 139.857 96.0005Z" fill="#1ABCFE"/>
</g>
<defs>
<clipPath id="clip0_1376_141">
<rect width="194.925" height="194.925" fill="white" transform="translate(0.160156)"/>
</clipPath>
</defs>
</svg>
