<svg width="196" height="195" viewBox="0 0 196 195" fill="none" xmlns="http://www.w3.org/2000/svg">
<g clip-path="url(#clip0_1376_125)">
<path d="M35.413 1.57113e-05H161.302C165.836 -0.00436735 170.327 0.908368 174.517 2.68599C178.706 4.4636 182.513 7.0712 185.719 10.3596C188.926 13.6479 191.468 17.5524 193.201 21.8497C194.934 26.147 195.824 30.7526 195.82 35.4031V159.522C195.824 164.172 194.934 168.778 193.201 173.075C191.468 177.373 188.926 181.277 185.719 184.565C182.513 187.854 178.706 190.461 174.517 192.239C170.327 194.017 165.836 194.929 161.302 194.925H35.413C30.8788 194.929 26.3883 194.017 22.1985 192.239C18.0086 190.461 14.2017 187.854 10.9956 184.565C7.78944 181.277 5.24703 177.373 3.51385 173.075C1.78068 168.778 0.890761 164.172 0.895035 159.522V35.4031C0.890761 30.7526 1.78068 26.147 3.51385 21.8497C5.24703 17.5524 7.78944 13.6479 10.9956 10.3596C14.2017 7.0712 18.0086 4.4636 22.1985 2.68599C26.3883 0.908368 30.8788 -0.00436735 35.413 1.57113e-05Z" fill="#D9D9D9"/>
<path d="M152.041 51.2249L142.26 160.802L98.2918 172.991L54.4451 160.819L44.6738 51.2249H152.041Z" fill="#E44D26"/>
<path d="M98.3574 163.674L133.886 153.824L142.244 60.1855H98.3574V163.674Z" fill="#F16529"/>
<path d="M79.3428 87.0684H98.3576V73.6272H64.6533L64.9749 77.2332L68.2787 114.274H98.3576V100.832H80.5713L79.3428 87.0684V87.0684ZM82.3722 120.994H68.8792L70.7622 142.099L98.2957 149.742L98.3576 149.725V135.741L98.2987 135.756L83.3293 131.714L82.3722 120.994V120.994Z" fill="#EBEBEB"/>
<path d="M54.6631 21.4418H61.4938V28.1904H67.7424V21.4418H74.5735V41.8782H67.7428V35.0349H61.4942V41.8782H54.6635V21.4418H54.6631ZM83.5556 28.219H77.5431V21.4418H96.4038V28.219H90.3875V41.8782H83.5569V28.219H83.5564H83.5556ZM99.397 21.4418H106.519L110.901 28.6226L115.278 21.4418H122.403V41.8782H115.6V31.7488L110.901 39.0151H110.783L106.08 31.7488V41.8782H99.397V21.4418ZM125.802 21.4418H132.635V35.1233H142.241V41.8782H125.802V21.4418H125.802Z" fill="black"/>
<path d="M98.311 114.274H114.862L113.302 131.706L98.3105 135.752V149.736L125.866 142.099L126.068 139.828L129.227 104.442L129.555 100.832H98.311V114.274ZM98.311 87.0356V87.0684H130.778L131.047 84.0474L131.66 77.2332L131.981 73.6272H98.311V87.036V87.0356Z" fill="white"/>
</g>
<defs>
<clipPath id="clip0_1376_125">
<rect width="194.925" height="194.925" fill="white" transform="translate(0.89502)"/>
</clipPath>
</defs>
</svg>
