<svg width="196" height="195" viewBox="0 0 196 195" fill="none" xmlns="http://www.w3.org/2000/svg">
<g clip-path="url(#clip0_1376_93)">
<path d="M35.0981 1.57113e-05H160.987C165.521 -0.00436735 170.012 0.908368 174.202 2.68599C178.391 4.4636 182.198 7.0712 185.405 10.3596C188.611 13.6479 191.153 17.5524 192.886 21.8497C194.619 26.147 195.509 30.7526 195.505 35.4031V159.522C195.509 164.172 194.619 168.778 192.886 173.075C191.153 177.373 188.611 181.277 185.405 184.565C182.198 187.854 178.391 190.461 174.202 192.239C170.012 194.017 165.521 194.929 160.987 194.925H35.0981C30.5639 194.929 26.0734 194.017 21.8836 192.239C17.6937 190.461 13.8868 187.854 10.6806 184.565C7.4745 181.277 4.93209 177.373 3.19891 173.075C1.46574 168.778 0.57582 164.172 0.580093 159.522V35.4031C0.57582 30.7526 1.46574 26.147 3.19891 21.8497C4.93209 17.5524 7.4745 13.6479 10.6806 10.3596C13.8868 7.0712 17.6937 4.4636 21.8836 2.68599C26.0734 0.908368 30.5639 -0.00436735 35.0981 1.57113e-05V1.57113e-05Z" fill="#F0F0F0"/>
<path d="M136.416 143.341H135.828V143.012H137.411V143.341H136.827V144.983H136.416V143.341ZM139.574 143.427H139.564L138.982 144.983H138.715L138.136 143.427H138.129V144.983H137.742V143.012H138.312L138.848 144.408L139.383 143.012H139.951V144.983H139.573V143.427H139.574Z" fill="#E76F00"/>
<path d="M83.7687 103.047C83.7687 103.047 79.6769 105.426 86.6806 106.231C95.1655 107.199 99.502 107.06 108.852 105.291C108.852 105.291 111.311 106.832 114.744 108.167C93.7828 117.151 67.305 107.647 83.7687 103.047Z" fill="#5382A1"/>
<path d="M81.2074 91.3236C81.2074 91.3236 76.6181 94.7207 83.627 95.4457C92.6908 96.3807 99.8486 96.4572 112.234 94.0722C112.234 94.0722 113.948 95.809 116.641 96.7588C91.2983 104.169 63.0707 97.3432 81.2074 91.3236Z" fill="#5382A1"/>
<path d="M102.8 71.4377C107.965 77.3839 101.443 82.7349 101.443 82.7349C101.443 82.7349 114.557 75.9649 108.535 67.4873C102.91 59.5814 98.5959 55.6533 121.948 42.1096C121.948 42.1096 85.2926 51.2646 102.8 71.4377Z" fill="#E76F00"/>
<path d="M130.523 111.718C130.523 111.718 133.551 114.212 127.188 116.143C115.089 119.808 76.8308 120.915 66.2028 116.289C62.3824 114.627 69.5468 112.32 71.8005 111.836C74.1509 111.326 75.494 111.421 75.494 111.421C71.2452 108.428 48.0318 117.298 63.7027 119.839C106.44 126.769 141.608 116.718 130.523 111.718Z" fill="#5382A1"/>
<path d="M85.7365 79.1775C85.7365 79.1775 66.276 83.7997 78.8451 85.4782C84.1521 86.1887 94.7316 86.0279 104.586 85.2023C112.64 84.5229 120.727 83.0785 120.727 83.0785C120.727 83.0785 117.887 84.2946 115.832 85.6975C96.0704 90.8949 57.8942 88.477 68.8846 83.1607C78.1793 78.6678 85.7365 79.1775 85.7365 79.1775Z" fill="#5382A1"/>
<path d="M120.646 98.6907C140.735 88.2518 131.447 78.2201 124.964 79.5716C123.375 79.9024 122.666 80.1889 122.666 80.1889C122.666 80.1889 123.256 79.2648 124.383 78.8648C137.208 74.3558 147.072 92.1638 120.242 99.2169C120.242 99.2172 120.553 98.9392 120.646 98.6907Z" fill="#5382A1"/>
<path d="M108.535 20.2402C108.535 20.2402 119.66 31.3695 97.9826 48.4831C80.5994 62.2112 94.0187 70.0386 97.9754 78.9817C87.8285 69.8268 80.3821 61.7676 85.3777 54.267C92.7102 43.2566 113.024 37.9184 108.535 20.2402Z" fill="#E76F00"/>
<path d="M87.7104 126.978C106.993 128.212 136.604 126.293 137.305 117.169C137.305 117.169 135.957 120.628 121.369 123.375C104.911 126.472 84.612 126.11 72.5725 124.125C72.5728 124.125 75.0371 126.165 87.7104 126.978Z" fill="#5382A1"/>
<path d="M84.5503 161.841C82.7312 163.419 80.81 164.305 79.0859 164.305C76.6251 164.305 75.2955 162.829 75.2955 160.462C75.2955 157.902 76.72 156.03 82.4351 156.03H84.55V161.841H84.5503ZM89.5696 167.504V149.974C89.5696 145.496 87.0155 142.541 80.8574 142.541C77.2623 142.541 74.1131 143.429 71.5535 144.561L72.2923 147.664C74.3076 146.924 76.9163 146.236 79.4767 146.236C83.0242 146.236 84.5503 147.664 84.5503 150.617V152.832H82.7797C74.1607 152.832 70.2727 156.178 70.2727 161.2C70.2727 165.534 72.8349 167.997 77.6591 167.997C80.7601 167.997 83.075 166.717 85.2389 164.844L85.6317 167.505H89.5696V167.504Z" fill="#E76F00"/>
<path d="M106.321 167.504H100.061L92.5266 142.985H97.9935L102.669 158.05L103.708 162.581C106.073 156.03 107.746 149.384 108.582 142.985H113.9C112.475 151.059 109.912 159.921 106.321 167.504Z" fill="#E76F00"/>
<path d="M130.336 161.841C128.514 163.419 126.589 164.305 124.865 164.305C122.408 164.305 121.075 162.829 121.075 160.462C121.075 157.902 122.503 156.03 128.218 156.03H130.336V161.841ZM135.355 167.504V149.974C135.355 145.496 132.795 142.541 126.644 142.541C123.046 142.541 119.896 143.429 117.337 144.561L118.075 147.664C120.091 146.924 122.705 146.236 125.263 146.236C128.808 146.236 130.336 147.664 130.336 150.617V152.832H128.563C119.941 152.832 116.055 156.178 116.055 161.2C116.055 165.534 118.615 167.997 123.438 167.997C126.541 167.997 128.855 166.717 131.023 164.844L131.417 167.505H135.355V167.504Z" fill="#E76F00"/>
<path d="M64.7691 171.668C63.3383 173.757 61.0271 175.41 58.497 176.345L56.0188 173.429C57.9446 172.441 59.5963 170.845 60.3637 169.358C61.0274 168.036 61.3022 166.332 61.3022 162.258V134.265H66.6349V161.874C66.6346 167.322 66.1991 169.522 64.7691 171.668Z" fill="#E76F00"/>
</g>
<defs>
<clipPath id="clip0_1376_93">
<rect width="194.925" height="194.925" fill="white" transform="translate(0.580078)"/>
</clipPath>
</defs>
</svg>
