<svg width="196" height="195" viewBox="0 0 196 195" fill="none" xmlns="http://www.w3.org/2000/svg">
<g clip-path="url(#clip0_1376_109)">
<path d="M34.9931 1.57113e-05H160.882C165.416 -0.00436735 169.907 0.908368 174.097 2.68599C178.286 4.4636 182.093 7.0712 185.3 10.3596C188.506 13.6479 191.048 17.5524 192.781 21.8497C194.514 26.147 195.404 30.7526 195.4 35.4031V159.522C195.404 164.172 194.514 168.778 192.781 173.075C191.048 177.373 188.506 181.277 185.3 184.565C182.093 187.854 178.286 190.461 174.097 192.239C169.907 194.017 165.416 194.929 160.882 194.925H34.9931C30.4589 194.929 25.9684 194.017 21.7786 192.239C17.5887 190.461 13.7818 187.854 10.5757 184.565C7.36952 181.277 4.82711 177.373 3.09393 173.075C1.36076 168.778 0.470839 164.172 0.475113 159.522V35.4031C0.470839 30.7526 1.36076 26.147 3.09393 21.8497C4.82711 17.5524 7.36952 13.6479 10.5757 10.3596C13.7818 7.0712 17.5887 4.4636 21.7786 2.68599C25.9684 0.908368 30.4589 -0.00436735 34.9931 1.57113e-05Z" fill="#000B1D"/>
<path d="M97.6629 32.1626C63.8759 32.1626 65.9858 46.8147 65.9858 46.8147L66.0235 61.9941H98.2656V66.5517H53.217C53.217 66.5517 31.5967 64.0998 31.5967 98.1912C31.5967 132.283 50.4674 131.074 50.4674 131.074H61.7295V115.254C61.7295 115.254 61.1225 96.3832 80.2989 96.3832C99.4753 96.3832 112.277 96.3832 112.277 96.3832C112.277 96.3832 130.244 96.6737 130.244 79.0192C130.244 61.3647 130.244 49.828 130.244 49.828C130.244 49.828 132.972 32.1626 97.6629 32.1626ZM79.8846 42.3701C83.0924 42.3701 85.6851 44.9628 85.6851 48.1707C85.6851 51.3785 83.0924 53.9712 79.8846 53.9712C76.6767 53.9712 74.084 51.3785 74.084 48.1707C74.084 44.9628 76.6767 42.3701 79.8846 42.3701Z" fill="url(#paint0_linear_1376_109)"/>
<path d="M98.6224 164.562C132.409 164.562 130.3 149.91 130.3 149.91L130.262 134.73H98.0198V130.173H143.068C143.068 130.173 164.689 132.625 164.689 98.5332C164.689 64.4417 145.818 65.6507 145.818 65.6507H134.556V81.4704C134.556 81.4704 135.163 100.341 115.986 100.341C96.8101 100.341 84.008 100.341 84.008 100.341C84.008 100.341 66.0413 100.051 66.0413 117.705C66.0413 135.36 66.0413 146.896 66.0413 146.896C66.0413 146.896 63.3134 164.562 98.6224 164.562ZM116.401 154.354C113.193 154.354 110.6 151.762 110.6 148.554C110.6 145.346 113.193 142.753 116.401 142.753C119.609 142.753 122.201 145.346 122.201 148.554C122.201 151.762 119.609 154.354 116.401 154.354Z" fill="url(#paint1_linear_1376_109)"/>
</g>
<defs>
<linearGradient id="paint0_linear_1376_109" x1="44.3871" y1="43.7354" x2="110.197" y2="109.766" gradientUnits="userSpaceOnUse">
<stop stop-color="#387EB8"/>
<stop offset="1" stop-color="#366994"/>
</linearGradient>
<linearGradient id="paint1_linear_1376_109" x1="84.8706" y1="85.7411" x2="155.551" y2="153.456" gradientUnits="userSpaceOnUse">
<stop stop-color="#FFE052"/>
<stop offset="1" stop-color="#FFC331"/>
</linearGradient>
<clipPath id="clip0_1376_109">
<rect width="194.925" height="194.925" fill="white" transform="translate(0.475098)"/>
</clipPath>
</defs>
</svg>
