<svg width="196" height="195" viewBox="0 0 196 195" fill="none" xmlns="http://www.w3.org/2000/svg">
<g clip-path="url(#clip0_1376_114)">
<path d="M35.203 1.57113e-05H161.092C165.626 -0.00436735 170.117 0.908368 174.307 2.68599C178.496 4.4636 182.303 7.0712 185.51 10.3596C188.716 13.6479 191.258 17.5524 192.991 21.8497C194.724 26.147 195.614 30.7526 195.61 35.4031V159.522C195.614 164.172 194.724 168.778 192.991 173.075C191.258 177.373 188.716 181.277 185.51 184.565C182.303 187.854 178.496 190.461 174.307 192.239C170.117 194.017 165.626 194.929 161.092 194.925H35.203C30.6689 194.929 26.1784 194.017 21.9885 192.239C17.7987 190.461 13.9918 187.854 10.7856 184.565C7.57948 181.277 5.03707 177.373 3.30389 173.075C1.57072 168.778 0.6808 164.172 0.685074 159.522V35.4031C0.6808 30.7526 1.57072 26.147 3.30389 21.8497C5.03707 17.5524 7.57948 13.6479 10.7856 10.3596C13.9918 7.0712 17.7987 4.4636 21.9885 2.68599C26.1784 0.908368 30.6689 -0.00436735 35.203 1.57113e-05Z" fill="#000B1D"/>
<g clip-path="url(#clip1_1376_114)">
<path d="M98.1475 110.351C105.632 110.351 111.699 104.363 111.699 96.9752C111.699 89.5877 105.632 83.599 98.1475 83.599C90.6632 83.599 84.5959 89.5877 84.5959 96.9752C84.5959 104.363 90.6632 110.351 98.1475 110.351Z" fill="#61DAFB"/>
<path fill-rule="evenodd" clip-rule="evenodd" d="M33.2688 88.6289C29.9808 91.5586 28.5995 94.3844 28.5995 96.9753C28.5995 99.5662 29.9808 102.392 33.2688 105.322C36.5565 108.251 41.4917 111.033 47.8597 113.433C60.5739 118.224 78.3525 121.254 98.1474 121.254C117.942 121.254 135.721 118.224 148.435 113.433C154.803 111.033 159.738 108.251 163.026 105.322C166.314 102.392 167.695 99.5662 167.695 96.9753C167.695 94.3844 166.314 91.5586 163.026 88.6289C159.738 85.6994 154.803 82.9179 148.435 80.518C135.721 75.7263 117.942 72.6969 98.1474 72.6969C78.3525 72.6969 60.5739 75.7263 47.8597 80.518C41.4917 82.9179 36.5565 85.6994 33.2688 88.6289ZM45.6 74.6762C59.2035 69.5493 77.7828 66.4438 98.1474 66.4438C118.512 66.4438 137.091 69.5493 150.695 74.6762C157.486 77.2356 163.2 80.3594 167.271 83.9873C171.342 87.6149 174.03 91.9986 174.03 96.9753C174.03 101.952 171.342 106.336 167.271 109.963C163.2 113.591 157.486 116.715 150.695 119.274C137.091 124.401 118.512 127.507 98.1474 127.507C77.7828 127.507 59.2035 124.401 45.6 119.274C38.809 116.715 33.0953 113.591 29.0238 109.963C24.9526 106.336 22.2644 101.952 22.2644 96.9753C22.2644 91.9986 24.9526 87.6149 29.0238 83.9873C33.0953 80.3594 38.809 77.2356 45.6 74.6762Z" fill="#61DAFB"/>
<path fill-rule="evenodd" clip-rule="evenodd" d="M73.031 37.3424C68.8165 35.9966 65.6466 36.2287 63.3734 37.5242C61.1001 38.8197 59.3116 41.4133 58.3851 45.6888C57.4587 49.9639 57.4859 55.5734 58.5642 62.2169C60.7172 75.4811 66.9486 92.1932 76.8461 109.114C86.7436 126.036 98.2907 139.718 108.852 148.191C114.142 152.434 119.05 155.262 123.264 156.608C127.478 157.954 130.648 157.722 132.921 156.426C135.195 155.131 136.983 152.537 137.91 148.262C138.836 143.987 138.809 138.377 137.73 131.734C135.577 118.469 129.346 101.757 119.449 84.8361C109.551 67.9149 98.004 54.2321 87.4427 45.7596C82.153 41.516 77.245 38.6881 73.031 37.3424ZM91.4383 40.907C102.738 49.9722 114.753 64.3014 124.935 81.7095C135.117 99.1176 141.682 116.552 143.986 130.744C145.136 137.829 145.252 144.275 144.105 149.57C142.957 154.863 140.455 159.353 136.089 161.842C131.722 164.33 126.532 164.224 121.314 162.558C116.095 160.891 110.497 157.569 104.856 153.043C93.5564 143.978 81.5421 129.649 71.3598 112.241C61.1774 94.8328 54.6125 77.3981 52.3089 63.2061C51.159 56.1214 51.0429 49.6753 52.1901 44.3809C53.3373 39.087 55.8394 34.5972 60.2058 32.1089C64.5723 29.6205 69.7625 29.7266 74.9809 31.3929C80.1997 33.0594 85.7973 36.3817 91.4383 40.907Z" fill="#61DAFB"/>
<path fill-rule="evenodd" clip-rule="evenodd" d="M137.91 45.6888C136.983 41.4132 135.195 38.8196 132.921 37.5241C130.648 36.2287 127.478 35.9966 123.264 37.3424C119.05 38.688 114.142 41.516 108.852 45.7595C98.2907 54.2321 86.7436 67.9148 76.8461 84.836C66.9486 101.757 60.7172 118.469 58.5642 131.734C57.4859 138.377 57.4587 143.986 58.3851 148.262C59.3116 152.537 61.1002 155.131 63.3734 156.426C65.6466 157.722 68.8165 157.954 73.031 156.608C77.2451 155.262 82.1531 152.434 87.4428 148.191C98.004 139.718 109.551 126.035 119.449 109.114C129.346 92.1932 135.578 75.4811 137.731 62.2168C138.809 55.5733 138.836 49.9639 137.91 45.6888ZM143.986 63.206C141.682 77.3981 135.117 94.8327 124.935 112.241C114.753 129.649 102.738 143.978 91.4383 153.043C85.7974 157.569 80.1998 160.891 74.9809 162.557C69.7626 164.224 64.5723 164.33 60.2059 161.842C55.8394 159.353 53.3373 154.863 52.1902 149.569C51.0429 144.275 51.159 137.829 52.3089 130.744C54.6125 116.552 61.1775 99.1176 71.3598 81.7094C81.5421 64.3013 93.5564 49.9721 104.856 40.907C110.497 36.3816 116.095 33.0593 121.314 31.3928C126.532 29.7265 131.722 29.6204 136.089 32.1088C140.455 34.5972 142.957 39.0869 144.105 44.3809C145.252 49.6752 145.136 56.1214 143.986 63.206Z" fill="#61DAFB"/>
</g>
</g>
<defs>
<clipPath id="clip0_1376_114">
<rect width="194.925" height="194.925" fill="white" transform="translate(0.685059)"/>
</clipPath>
<clipPath id="clip1_1376_114">
<rect width="152.042" height="133.524" fill="white" transform="translate(22.1267 30.2134)"/>
</clipPath>
</defs>
</svg>
