<svg width="196" height="195" viewBox="0 0 196 195" fill="none" xmlns="http://www.w3.org/2000/svg">
<path d="M35.4682 1.57113e-05H161.357C165.891 -0.00436735 170.382 0.908368 174.572 2.68599C178.762 4.4636 182.569 7.0712 185.775 10.3596C188.981 13.6479 191.523 17.5524 193.256 21.8497C194.99 26.147 195.879 30.7526 195.875 35.4031V159.522C195.879 164.172 194.99 168.778 193.256 173.075C191.523 177.373 188.981 181.277 185.775 184.565C182.569 187.854 178.762 190.461 174.572 192.239C170.382 194.017 165.891 194.929 161.357 194.925H35.4682C30.934 194.929 26.4435 194.017 22.2537 192.239C18.0638 190.461 14.2569 187.854 11.0508 184.565C7.84462 181.277 5.30221 177.373 3.56903 173.075C1.83585 168.778 0.945937 164.172 0.950211 159.522V35.4031C0.945937 30.7526 1.83585 26.147 3.56903 21.8497C5.30221 17.5524 7.84462 13.6479 11.0508 10.3596C14.2569 7.0712 18.0638 4.4636 22.2537 2.68599C26.4435 0.908368 30.934 -0.00436735 35.4682 1.57113e-05Z" fill="#000B1D"/>
<path d="M161.227 44.4611L133.37 31.0488C130.146 29.4963 126.293 30.1512 123.762 32.6817L32.5709 115.827C30.1181 118.063 30.121 121.925 32.577 124.157L40.0258 130.929C42.0337 132.754 45.0578 132.889 47.2197 131.249L157.035 47.9406C160.719 45.1457 166.011 47.7733 166.011 52.3977V52.0743C166.011 48.8283 164.151 45.8692 161.227 44.4611Z" fill="#0065A9"/>
<g filter="url(#filter0_d_1376_185)">
<path d="M161.226 150.464L133.37 163.877C130.145 165.429 126.292 164.774 123.762 162.244L32.5705 79.0988C30.1176 76.8624 30.1205 73.0007 32.5765 70.7679L40.0253 63.9962C42.0333 62.1708 45.0573 62.0365 47.2192 63.6765L157.034 146.985C160.719 149.78 166.01 147.152 166.01 142.528V142.851C166.01 146.097 164.151 149.056 161.226 150.464Z" fill="#007ACC"/>
</g>
<g filter="url(#filter1_d_1376_185)">
<path d="M133.371 163.879C130.146 165.431 126.293 164.774 123.762 162.244C126.88 165.362 132.212 163.153 132.212 158.744V36.1814C132.212 31.7717 126.88 29.5633 123.762 32.6814C126.293 30.1507 130.146 29.4949 133.371 31.046L161.223 44.4399C164.149 45.8473 166.01 48.8074 166.01 52.0548V142.871C166.01 146.118 164.149 149.078 161.223 150.486L133.371 163.879Z" fill="#1F9CF0"/>
</g>
<g style="mix-blend-mode:overlay" opacity="0.25">
<path style="mix-blend-mode:overlay" fill-rule="evenodd" clip-rule="evenodd" d="M126.602 164.137C128.732 164.966 131.16 164.913 133.309 163.879L161.143 150.486C164.068 149.078 165.928 146.118 165.928 142.871V52.055C165.928 48.8074 164.068 45.8473 161.144 44.44L133.309 31.0461C130.489 29.6889 127.187 30.0214 124.712 31.8211C124.358 32.0782 124.021 32.3652 123.705 32.6815L70.4196 81.2951L47.2094 63.6768C45.0489 62.0366 42.0266 62.1711 40.0199 63.9964L32.5757 70.768C30.1211 73.0009 30.1183 76.8625 32.5696 79.0989L52.6982 97.4626L32.5696 115.826C30.1183 118.063 30.1211 121.924 32.5757 124.157L40.0199 130.929C42.0266 132.754 45.0489 132.889 47.2094 131.249L70.4196 113.63L123.705 162.244C124.548 163.087 125.538 163.722 126.602 164.137ZM132.15 66.7718L91.7183 97.4626L132.15 128.154V66.7718Z" fill="url(#paint0_linear_1376_185)"/>
</g>
<defs>
<filter id="filter0_d_1376_185" x="22.3993" y="54.1979" width="151.944" height="118.846" filterUnits="userSpaceOnUse" color-interpolation-filters="sRGB">
<feFlood flood-opacity="0" result="BackgroundImageFix"/>
<feColorMatrix in="SourceAlpha" type="matrix" values="0 0 0 0 0 0 0 0 0 0 0 0 0 0 0 0 0 0 127 0" result="hardAlpha"/>
<feOffset/>
<feGaussianBlur stdDeviation="4.16667"/>
<feColorMatrix type="matrix" values="0 0 0 0 0 0 0 0 0 0 0 0 0 0 0 0 0 0 0.25 0"/>
<feBlend mode="overlay" in2="BackgroundImageFix" result="effect1_dropShadow_1376_185"/>
<feBlend mode="normal" in="SourceGraphic" in2="effect1_dropShadow_1376_185" result="shape"/>
</filter>
<filter id="filter1_d_1376_185" x="115.429" y="21.88" width="58.9152" height="151.165" filterUnits="userSpaceOnUse" color-interpolation-filters="sRGB">
<feFlood flood-opacity="0" result="BackgroundImageFix"/>
<feColorMatrix in="SourceAlpha" type="matrix" values="0 0 0 0 0 0 0 0 0 0 0 0 0 0 0 0 0 0 127 0" result="hardAlpha"/>
<feOffset/>
<feGaussianBlur stdDeviation="4.16667"/>
<feColorMatrix type="matrix" values="0 0 0 0 0 0 0 0 0 0 0 0 0 0 0 0 0 0 0.25 0"/>
<feBlend mode="overlay" in2="BackgroundImageFix" result="effect1_dropShadow_1376_185"/>
<feBlend mode="normal" in="SourceGraphic" in2="effect1_dropShadow_1376_185" result="shape"/>
</filter>
<linearGradient id="paint0_linear_1376_185" x1="98.3306" y1="30.2135" x2="98.3306" y2="164.712" gradientUnits="userSpaceOnUse">
<stop stop-color="white"/>
<stop offset="1" stop-color="white" stop-opacity="0"/>
</linearGradient>
</defs>
</svg>
